<mxfile host="app.diagrams.net" agent="Mozilla/5.0 (Windows NT 10.0; Win64; x64; rv:143.0) Gecko/20100101 Firefox/143.0" version="28.2.3">
  <diagram name="Page-1" id="FlboFa7aeIOLYqG5yEL5">
    <mxGraphModel dx="1042" dy="520" grid="1" gridSize="10" guides="1" tooltips="1" connect="1" arrows="1" fold="1" page="1" pageScale="1" pageWidth="850" pageHeight="1100" math="0" shadow="0">
      <root>
        <mxCell id="0" />
        <mxCell id="1" parent="0" />
        <mxCell id="Glp4vexbrOhE3sXpnx6G-18" style="edgeStyle=orthogonalEdgeStyle;rounded=0;orthogonalLoop=1;jettySize=auto;html=1;exitX=0.25;exitY=0;exitDx=0;exitDy=0;entryX=1;entryY=0.25;entryDx=0;entryDy=0;" edge="1" parent="1" source="Glp4vexbrOhE3sXpnx6G-8" target="Glp4vexbrOhE3sXpnx6G-17">
          <mxGeometry relative="1" as="geometry" />
        </mxCell>
        <mxCell id="Glp4vexbrOhE3sXpnx6G-8" value="Class: Race" style="swimlane;childLayout=stackLayout;horizontal=1;startSize=50;horizontalStack=0;rounded=1;fontSize=14;fontStyle=0;strokeWidth=2;resizeParent=0;resizeLast=1;shadow=0;dashed=0;align=center;arcSize=4;whiteSpace=wrap;html=1;" vertex="1" parent="1">
          <mxGeometry x="350" y="220" width="290" height="190" as="geometry" />
        </mxCell>
        <mxCell id="Glp4vexbrOhE3sXpnx6G-9" value="&lt;div&gt;- field horses: Horse[]&lt;/div&gt;&lt;div&gt;- field numHorses: int&lt;/div&gt;&lt;div&gt;&lt;br&gt;&lt;/div&gt;&lt;div&gt;+ Race(): Race&lt;/div&gt;&lt;div&gt;+ raceLoop(): void&lt;/div&gt;" style="align=left;strokeColor=none;fillColor=none;spacingLeft=4;spacingRight=4;fontSize=12;verticalAlign=top;resizable=0;rotatable=0;part=1;html=1;whiteSpace=wrap;" vertex="1" parent="Glp4vexbrOhE3sXpnx6G-8">
          <mxGeometry y="50" width="290" height="140" as="geometry" />
        </mxCell>
        <mxCell id="Glp4vexbrOhE3sXpnx6G-10" value="Class: Horse" style="swimlane;childLayout=stackLayout;horizontal=1;startSize=50;horizontalStack=0;rounded=1;fontSize=14;fontStyle=0;strokeWidth=2;resizeParent=0;resizeLast=1;shadow=0;dashed=0;align=center;arcSize=4;whiteSpace=wrap;html=1;" vertex="1" parent="1">
          <mxGeometry x="130" y="230" width="160" height="190" as="geometry" />
        </mxCell>
        <mxCell id="Glp4vexbrOhE3sXpnx6G-11" value="&lt;div&gt;- field horseID: int&lt;/div&gt;&lt;div&gt;- field position: int&lt;/div&gt;&lt;div&gt;- field trackSize: int&lt;/div&gt;&lt;div&gt;&lt;br&gt;&lt;/div&gt;&lt;div&gt;+ Horse(int id): Horse&lt;/div&gt;&lt;div&gt;&lt;br&gt;&lt;/div&gt;&lt;div&gt;+ tryMove(): int&lt;/div&gt;&lt;div&gt;+ printLane(): void&lt;/div&gt;&lt;div&gt;+ isWinner(): bool&lt;/div&gt;" style="align=left;strokeColor=none;fillColor=none;spacingLeft=4;spacingRight=4;fontSize=12;verticalAlign=top;resizable=0;rotatable=0;part=1;html=1;whiteSpace=wrap;" vertex="1" parent="Glp4vexbrOhE3sXpnx6G-10">
          <mxGeometry y="50" width="160" height="140" as="geometry" />
        </mxCell>
        <mxCell id="Glp4vexbrOhE3sXpnx6G-15" style="edgeStyle=orthogonalEdgeStyle;rounded=0;orthogonalLoop=1;jettySize=auto;html=1;exitX=1;exitY=0;exitDx=0;exitDy=0;entryX=0;entryY=0.25;entryDx=0;entryDy=0;" edge="1" parent="1" source="Glp4vexbrOhE3sXpnx6G-11" target="Glp4vexbrOhE3sXpnx6G-9">
          <mxGeometry relative="1" as="geometry" />
        </mxCell>
        <mxCell id="Glp4vexbrOhE3sXpnx6G-16" value="Program Main" style="swimlane;childLayout=stackLayout;horizontal=1;startSize=50;horizontalStack=0;rounded=1;fontSize=14;fontStyle=0;strokeWidth=2;resizeParent=0;resizeLast=1;shadow=0;dashed=0;align=center;arcSize=4;whiteSpace=wrap;html=1;" vertex="1" parent="1">
          <mxGeometry x="130" y="50" width="160" height="160" as="geometry" />
        </mxCell>
        <mxCell id="Glp4vexbrOhE3sXpnx6G-17" value="+ field currentRace: Race&lt;div&gt;&lt;br&gt;&lt;/div&gt;&lt;div&gt;+ initializeRace(): void&lt;/div&gt;&lt;div&gt;&lt;br&gt;&lt;/div&gt;&lt;div&gt;+ main(): int&lt;/div&gt;" style="align=left;strokeColor=none;fillColor=none;spacingLeft=4;spacingRight=4;fontSize=12;verticalAlign=top;resizable=0;rotatable=0;part=1;html=1;whiteSpace=wrap;" vertex="1" parent="Glp4vexbrOhE3sXpnx6G-16">
          <mxGeometry y="50" width="160" height="110" as="geometry" />
        </mxCell>
      </root>
    </mxGraphModel>
  </diagram>
</mxfile>
